<svg xmlns="http://www.w3.org/2000/svg" height="48px" viewBox="0 0 24 24" width="48px" fill="#000000">
    <linearGradient id="grad" x1="0%" y1="0%" x2="100%" y2="0%">
        <stop offset="0%" style="stop-color:#BC9CFF;stop-opacity:1" />
        <stop offset="100%" style="stop-color:#8BA4F9;stop-opacity:1" />
    </linearGradient>
    <path d="M0 0h24v24H0z" fill="none"/><path fill="url(#grad)" d="M15 11V5l-3-3-3 3v2H3v14h18V11h-6zm-8 8H5v-2h2v2zm0-4H5v-2h2v2zm0-4H5V9h2v2zm6 8h-2v-2h2v2zm0-4h-2v-2h2v2zm0-4h-2V9h2v2zm0-4h-2V5h2v2zm6 12h-2v-2h2v2zm0-4h-2v-2h2v2z"/></svg>